<?xml version="1.0" standalone="no"?>
<!DOCTYPE svg PUBLIC "-//W3C//DTD SVG 20010904//EN"
 "http://www.w3.org/TR/2001/REC-SVG-20010904/DTD/svg10.dtd">
<svg version="1.0" xmlns="http://www.w3.org/2000/svg"
 width="265.000000pt" height="210.000000pt" viewBox="0 0 265.000000 210.000000"
 preserveAspectRatio="xMidYMid meet">
<metadata>
Created by potrace 1.10, written by Peter Selinger 2001-2011
</metadata>
<g transform="translate(0.000000,210.000000) scale(0.100000,-0.100000)"
fill="#000000" stroke="none">
<path d="M503 1319 c-40 -20 -103 -96 -103 -125 0 -7 -16 -33 -35 -58 l-35
-46 32 0 c17 0 40 7 50 17 17 16 18 10 18 -165 l0 -182 50 0 50 0 0 213 c0
209 11 329 32 354 16 20 -10 16 -59 -8z m11 -71 c-4 -29 -9 -109 -10 -178 -4
-313 -1 -280 -29 -280 l-25 0 -2 168 -3 167 -27 0 c-16 -1 -28 0 -28 1 0 15
60 117 83 142 43 45 51 41 41 -20z"/>
<path d="M710 1292 l0 -48 -65 4 c-55 4 -65 2 -65 -12 0 -13 12 -16 65 -16
l65 0 0 -55 0 -55 -80 0 c-64 0 -80 -3 -80 -15 0 -13 30 -15 210 -15 180 0
210 2 210 15 0 12 -15 15 -75 15 l-75 0 0 58 0 57 70 -3 c60 -3 70 -1 70 13 0
15 -9 17 -70 13 l-70 -4 0 48 0 48 -55 0 -55 0 0 -48z m72 23 c9 -4 13 -16 10
-34 -2 -16 0 -31 5 -34 4 -3 6 -35 5 -71 l-4 -66 -34 0 -34 0 -1 58 c-2 70 1
134 8 145 5 8 26 9 45 2z"/>
<path d="M1454 1323 c-10 -16 -33 -19 -171 -23 -115 -4 -165 -9 -176 -19 -14
-11 -17 -33 -17 -112 0 -119 0 -119 130 -119 l91 0 -3 -112 -3 -113 -48 0
c-26 0 -47 -2 -47 -5 0 -15 76 -53 114 -57 35 -4 48 -1 65 16 19 19 21 32 21
147 l0 125 100 -3 c73 -2 101 0 105 10 3 9 -21 12 -100 12 l-105 0 0 80 0 80
-50 0 -50 0 0 -80 0 -80 -48 0 c-26 0 -53 5 -60 12 -7 7 -12 44 -12 95 0 71 3
84 19 93 11 6 89 10 181 10 166 0 210 9 223 45 10 24 -144 22 -159 -2z m91
-13 c-3 -5 -23 -9 -43 -9 l-37 2 40 7 c22 4 41 8 43 9 2 0 0 -3 -3 -9z m-377
-129 c0 -50 3 -95 7 -100 9 -15 -38 -14 -53 1 -16 16 -16 160 0 176 7 7 20 12
29 12 15 0 17 -11 17 -89z m223 -48 c2 -223 -3 -318 -18 -335 -16 -18 -40 -23
-66 -12 -13 5 -12 9 4 25 18 18 20 33 19 137 -1 64 -1 147 -1 185 l1 67 30 0
30 0 1 -67z"/>
<path d="M1939 1290 c-13 -24 -35 -58 -49 -74 l-25 -29 55 6 c45 6 60 12 87
42 27 30 38 35 77 35 25 0 47 -4 51 -9 3 -5 -2 -26 -12 -45 l-17 -36 -98 0
c-59 0 -98 -4 -98 -10 0 -6 27 -10 60 -10 l60 0 0 -50 0 -50 -70 0 c-40 0 -70
-4 -70 -10 0 -6 30 -10 70 -10 l70 0 0 -50 0 -50 -60 0 c-33 0 -60 -4 -60 -10
0 -6 27 -10 60 -10 l60 0 0 -31 c0 -65 -42 -86 -117 -58 l-28 10 30 -30 c53
-53 169 -60 195 -11 6 10 10 41 10 69 l0 51 68 0 c40 0 73 5 80 12 7 7 12 34
12 60 0 41 3 48 20 48 11 0 20 5 20 10 0 6 -9 10 -20 10 -17 0 -20 7 -20 43 0
49 -22 77 -58 77 -26 0 -26 0 -7 36 8 16 15 34 15 41 0 23 -41 35 -116 31 -47
-2 -73 1 -70 7 18 42 18 42 -32 41 -48 -1 -50 -2 -73 -46z m81 8 c-1 -18 -40
-63 -67 -77 -29 -15 -30 -3 -3 49 16 30 26 40 45 40 14 0 25 -6 25 -12z m174
-83 c-7 -47 1 -58 45 -64 26 -3 33 -169 9 -198 -25 -31 -33 -11 -35 89 -1 90
-4 105 -22 119 -11 9 -18 19 -15 22 3 3 -3 3 -15 0 -15 -4 -21 -1 -21 10 0 9
5 19 11 22 6 4 8 13 5 20 -6 17 13 35 30 28 10 -3 12 -17 8 -48z m-90 -188
c-3 -201 -3 -204 -20 -221 -15 -15 -74 -23 -74 -10 0 4 8 13 18 20 14 10 18
33 21 151 5 205 2 190 31 191 l25 0 -1 -131z m74 121 c7 -7 12 -29 12 -50 0
-37 -1 -38 -35 -38 l-35 0 0 50 c0 46 2 50 23 50 13 0 28 -5 35 -12z m12 -146
c0 -43 -14 -62 -47 -62 -21 0 -23 4 -23 50 l0 50 35 0 c34 0 35 -1 35 -38z"/>
<path d="M1736 1273 c10 -93 15 -111 35 -137 18 -22 82 -46 94 -34 3 2 -4 22
-16 44 -14 28 -19 50 -14 77 7 50 -7 74 -53 87 -53 14 -52 15 -46 -37z m60 9
c6 -4 13 -39 16 -79 5 -67 4 -72 -12 -63 -22 12 -40 61 -40 111 0 38 11 48 36
31z"/>
<path d="M710 1013 c0 -29 5 -53 10 -53 6 0 10 18 10 41 0 39 1 40 32 37 28
-3 32 -7 32 -35 1 -17 3 -34 6 -36 3 -3 4 -39 2 -81 l-4 -76 -34 0 -34 0 0 63
c0 36 -5 68 -12 75 -15 15 -148 16 -148 2 0 -6 30 -10 70 -10 l70 0 0 -68 0
-67 -80 3 c-68 4 -80 2 -80 -12 0 -14 24 -16 210 -16 186 0 210 2 210 16 0 14
-11 16 -75 12 l-75 -3 0 67 0 68 70 0 c40 0 70 4 70 10 0 6 -30 10 -70 10
l-70 0 0 49 0 49 -55 4 -55 3 0 -52z"/>
<path d="M1824 1060 c-54 -22 -80 -80 -99 -224 l-7 -49 39 6 c55 9 69 32 76
126 3 56 11 92 26 116 18 32 19 35 3 34 -9 0 -26 -4 -38 -9z m-11 -107 c-7
-93 -15 -118 -42 -133 -20 -10 -21 -8 -16 47 6 73 20 121 41 144 10 11 19 19
20 19 2 0 1 -35 -3 -77z"/>
<path d="M1170 977 c-30 -11 -37 -20 -56 -75 -12 -35 -32 -74 -45 -88 l-23
-25 44 7 c25 3 56 14 70 23 27 19 63 86 75 139 8 37 -4 40 -65 19z m30 -54
c-10 -44 -38 -83 -66 -94 -21 -7 -21 -7 -4 48 16 54 40 83 66 83 9 0 10 -10 4
-37z"/>
<path d="M1466 963 c3 -16 17 -51 29 -80 26 -58 62 -83 120 -83 l36 0 -25 23
c-14 13 -31 47 -41 80 -14 51 -21 60 -50 73 -19 8 -44 14 -55 14 -17 0 -19 -4
-14 -27z m75 -20 c17 -19 48 -113 38 -113 -25 0 -44 19 -65 64 -13 28 -24 56
-24 63 0 15 36 5 51 -14z"/>
</g>
</svg>
