<?xml version="1.0" standalone="no"?>
<!DOCTYPE svg PUBLIC "-//W3C//DTD SVG 20010904//EN"
 "http://www.w3.org/TR/2001/REC-SVG-20010904/DTD/svg10.dtd">
<svg version="1.0" xmlns="http://www.w3.org/2000/svg"
 width="225.000000pt" height="225.000000pt" viewBox="0 0 225.000000 225.000000"
 preserveAspectRatio="xMidYMid meet">
<metadata>
Created by potrace 1.10, written by Peter Selinger 2001-2011
</metadata>
<g transform="translate(0.000000,225.000000) scale(0.100000,-0.100000)"
fill="#000000" stroke="none">
<path d="M942 2226 c-370 -71 -658 -289 -818 -621 -151 -313 -151 -646 0 -960
146 -304 401 -513 734 -603 85 -22 117 -26 262 -26 174 0 228 7 360 52 98 32
197 82 287 144 83 57 232 208 285 289 89 134 154 300 178 451 18 110 8 341
-18 440 -109 406 -407 707 -807 813 -124 33 -345 43 -463 21z m463 -40 c584
-153 935 -750 785 -1337 -97 -377 -402 -682 -785 -786 -90 -24 -117 -27 -275
-27 -152 -1 -187 2 -263 22 -211 56 -348 134 -502 287 -118 116 -160 173 -224
301 -124 251 -145 554 -56 824 51 155 130 283 249 408 165 172 341 271 576
323 127 28 358 21 495 -15z"/>
<path d="M1020 2164 c0 -2 11 -20 25 -40 28 -41 30 -55 13 -72 -9 -9 -4 -12
22 -12 26 0 31 3 22 12 -18 18 -15 49 8 86 19 32 19 32 0 32 -11 0 -17 -5 -15
-12 3 -7 0 -20 -5 -28 -9 -13 -11 -13 -20 0 -5 8 -8 20 -6 26 3 7 -6 12 -20
12 -13 0 -24 -2 -24 -4z"/>
<path d="M928 2153 c-24 -3 -38 -9 -38 -18 0 -20 17 -27 24 -10 10 28 23 15
30 -31 4 -31 2 -52 -6 -62 -11 -13 -10 -15 5 -9 10 4 28 7 40 7 18 0 19 1 5
13 -17 13 -33 81 -23 98 5 7 11 6 21 -2 11 -9 14 -8 14 5 0 9 -7 15 -17 14
-10 -1 -35 -3 -55 -5z"/>
<path d="M1249 2129 c-7 -18 -23 -45 -37 -60 l-24 -29 23 0 c12 0 19 3 16 7
-9 8 12 33 28 33 18 0 28 -32 13 -42 -9 -5 -5 -8 12 -8 l26 0 -16 65 c-8 36
-18 65 -21 65 -4 0 -12 -14 -20 -31z m21 -30 c0 -5 -7 -9 -15 -9 -9 0 -12 6
-9 15 6 15 24 11 24 -6z"/>
<path d="M1327 2144 c-14 -14 -7 -21 17 -17 24 5 24 4 14 -38 -6 -24 -17 -49
-25 -55 -11 -10 -9 -13 9 -18 34 -9 43 -7 31 5 -7 7 -7 22 1 49 15 51 25 59
42 36 14 -19 14 -19 14 1 0 15 -8 22 -32 26 -18 3 -40 8 -49 11 -8 4 -18 3
-22 0z"/>
<path d="M843 2133 c-22 -4 -33 -23 -14 -23 11 0 31 -78 24 -95 -3 -10 2 -12
16 -8 22 6 39 23 23 23 -13 0 -33 75 -26 94 3 9 5 15 3 15 -2 -1 -14 -4 -26
-6z"/>
<path d="M746 2095 c-26 -27 -16 -50 27 -60 32 -8 43 -23 29 -37 -7 -7 -17 -6
-32 2 -20 11 -22 10 -17 -4 7 -18 -14 -22 -42 -6 -13 6 -17 17 -14 35 7 34
-19 42 -65 20 -21 -10 -31 -20 -24 -22 17 -6 54 -81 47 -93 -9 -15 9 -12 31 5
10 8 14 15 8 15 -13 0 -58 79 -50 87 12 13 37 -8 34 -29 -4 -31 41 -57 74 -41
13 7 33 14 45 18 44 12 38 62 -8 72 -32 6 -44 17 -34 33 4 7 13 6 27 -1 16 -9
19 -8 16 3 -7 20 -33 21 -52 3z"/>
<path d="M1513 2087 c7 -19 -29 -97 -45 -98 -7 0 5 -9 27 -19 47 -22 80 -12
71 23 -3 12 1 25 11 32 20 15 13 27 -33 54 -25 15 -35 17 -31 8z m44 -51 c-4
-9 -13 -13 -21 -10 -12 5 -13 10 -5 26 13 24 35 9 26 -16z m-14 -52 c-3 -8
-14 -14 -24 -14 -22 0 -23 4 -8 31 8 16 13 18 24 9 8 -6 11 -18 8 -26z"/>
<path d="M1623 2034 c3 -4 -5 -27 -19 -53 l-24 -46 25 -22 c15 -13 30 -23 34
-23 4 0 26 20 49 45 38 42 39 46 22 55 -15 8 -19 7 -17 -7 2 -30 -34 -74 -57
-71 -32 5 -31 40 1 75 27 29 28 32 11 42 -19 12 -35 15 -25 5z"/>
<path d="M533 1987 c-18 -12 -33 -26 -33 -30 0 -5 4 -6 9 -3 12 8 65 -70 56
-83 -12 -20 11 -11 45 18 28 24 33 32 23 42 -11 11 -13 10 -13 -3 0 -8 -6 -21
-14 -27 -12 -10 -17 -8 -25 8 -15 27 -14 31 10 31 18 0 19 2 9 15 -11 14 -14
13 -24 -1 -11 -14 -13 -14 -25 0 -17 21 -4 38 22 30 19 -6 20 -5 8 10 -7 9
-14 16 -15 15 0 0 -16 -10 -33 -22z"/>
<path d="M1007 1983 c-4 -3 -7 -12 -7 -20 0 -15 26 -18 34 -4 7 11 -18 33 -27
24z"/>
<path d="M1050 1970 c0 -13 5 -20 13 -17 6 2 12 10 12 17 0 7 -6 15 -12 18 -8
2 -13 -5 -13 -18z"/>
<path d="M1092 1974 c4 -21 22 -23 26 -1 2 10 -3 17 -13 17 -10 0 -15 -6 -13
-16z"/>
<path d="M1136 1981 c-3 -5 1 -14 8 -20 16 -13 32 2 21 19 -8 12 -22 13 -29 1z"/>
<path d="M1182 1973 c5 -25 28 -28 28 -4 0 12 -6 21 -16 21 -9 0 -14 -7 -12
-17z"/>
<path d="M960 1960 c0 -13 5 -20 13 -17 6 2 12 10 12 17 0 7 -6 15 -12 18 -8
2 -13 -5 -13 -18z"/>
<path d="M1225 1970 c-3 -6 1 -13 10 -16 19 -8 30 0 20 15 -8 14 -22 14 -30 1z"/>
<path d="M1276 1973 c-12 -12 -6 -33 9 -33 8 0 15 6 15 14 0 17 -14 28 -24 19z"/>
<path d="M914 1959 c-10 -17 13 -36 27 -22 12 12 4 33 -11 33 -5 0 -12 -5 -16
-11z"/>
<path d="M1314 1959 c-10 -17 13 -36 27 -22 12 12 4 33 -11 33 -5 0 -12 -5
-16 -11z"/>
<path d="M875 1950 c-7 -12 2 -30 16 -30 5 0 9 9 9 20 0 21 -15 27 -25 10z"/>
<path d="M1357 1945 c-8 -18 11 -31 25 -17 11 11 3 32 -12 32 -4 0 -10 -7 -13
-15z"/>
<path d="M1745 1950 c7 -12 -40 -72 -62 -81 -12 -4 -9 -9 10 -22 19 -12 25
-13 21 -4 -6 17 21 41 36 32 6 -3 7 -11 4 -17 -4 -6 -1 -9 6 -6 20 6 24 28 6
28 -19 0 -21 23 -3 39 17 13 27 5 27 -22 0 -16 2 -17 15 -7 14 11 12 17 -17
41 -33 28 -55 38 -43 19z"/>
<path d="M468 1936 c-18 -13 -25 -32 -9 -22 9 6 35 -53 27 -61 -10 -10 -66 28
-60 40 4 7 -2 4 -14 -7 l-21 -19 60 -28 c34 -16 62 -29 64 -29 2 0 -5 26 -16
57 -11 32 -17 63 -15 70 6 16 5 16 -16 -1z"/>
<path d="M832 1924 c4 -21 22 -23 26 -1 2 10 -3 17 -13 17 -10 0 -15 -6 -13
-16z"/>
<path d="M1402 1924 c4 -21 22 -23 26 -1 2 10 -3 17 -13 17 -10 0 -15 -6 -13
-16z"/>
<path d="M790 1911 c0 -12 6 -21 16 -21 9 0 14 7 12 17 -5 25 -28 28 -28 4z"/>
<path d="M1446 1923 c-12 -12 -6 -33 9 -33 8 0 15 6 15 14 0 17 -14 28 -24 19z"/>
<path d="M746 1901 c-3 -5 1 -14 8 -20 16 -13 32 2 21 19 -8 12 -22 13 -29 1z"/>
<path d="M1483 1895 c-3 -9 -3 -18 0 -21 9 -9 27 6 27 22 0 19 -19 18 -27 -1z"/>
<path d="M712 1876 c1 -10 8 -17 13 -17 15 1 12 24 -3 29 -9 3 -13 -2 -10 -12z"/>
<path d="M895 1869 c-27 -11 -52 -25 -54 -30 -7 -22 -104 -124 -123 -132 -12
-4 -18 -13 -14 -22 3 -9 0 -15 -8 -15 -17 0 -6 -67 16 -98 29 -42 102 -93 130
-90 15 2 35 -6 47 -16 21 -19 21 -19 38 20 l16 39 8 -35 c4 -21 20 -46 40 -62
40 -34 46 -34 54 -6 6 15 1 26 -15 38 -23 18 -20 40 5 40 17 0 65 -61 65 -81
0 -35 -21 -39 -217 -39 l-193 0 0 -137 c0 -272 61 -497 176 -654 42 -58 164
-173 204 -194 17 -9 28 -20 25 -25 -4 -6 4 -10 16 -10 32 0 202 -41 213 -51
20 -18 -2 -18 -50 0 -27 10 -85 26 -129 35 -77 16 -84 15 -157 -3 -42 -11 -86
-17 -98 -14 -18 5 -21 2 -18 -13 2 -10 10 -18 18 -16 7 2 16 -1 19 -6 3 -5 21
-12 38 -15 27 -5 35 -3 44 15 10 19 9 20 -14 14 -14 -3 -32 -9 -41 -12 -9 -3
-16 -1 -16 5 0 6 24 17 53 25 85 23 109 27 103 18 -3 -6 -21 -13 -39 -16 -29
-5 -34 -10 -33 -34 1 -32 21 -32 21 0 0 19 9 25 53 34 42 10 63 9 110 -3 31
-8 64 -22 72 -32 17 -20 67 -22 79 -3 4 7 15 10 24 6 13 -4 17 -1 17 15 0 12
-6 21 -15 21 -8 0 -15 -4 -15 -8 0 -5 -24 -1 -52 9 -29 10 -62 18 -72 19 -11
0 -16 3 -12 7 4 5 49 11 99 14 121 9 211 50 317 145 191 170 255 306 286 609
8 77 -16 197 -57 285 -33 72 -88 137 -100 119 -5 -8 -19 -2 -45 18 -22 16 -58
44 -81 61 l-43 33 0 -25 c0 -14 5 -37 11 -53 7 -15 11 -39 10 -52 0 -13 11
-40 25 -59 20 -25 23 -36 14 -42 -9 -5 -5 -20 14 -56 23 -44 24 -49 10 -65
-12 -13 -14 -27 -8 -51 4 -18 8 -41 9 -50 1 -9 13 -34 27 -55 48 -69 76 -213
50 -259 -7 -13 -10 -4 -14 34 -3 28 -25 99 -49 158 -31 76 -40 109 -31 112 16
5 5 22 -14 22 -18 0 -18 -33 1 -96 8 -27 12 -57 9 -67 -5 -17 -7 -18 -25 -1
-16 14 -19 15 -24 2 -8 -21 1 -128 14 -161 16 -41 14 -171 -3 -212 -8 -19 -16
-35 -18 -35 -2 0 -3 42 -3 93 0 50 -4 121 -9 156 -7 47 -6 62 3 57 13 -9 14 3
2 23 -8 12 -11 8 -17 -15 -5 -16 -8 -46 -7 -66 0 -21 -4 -35 -8 -32 -12 7 -29
-39 -29 -76 0 -16 -7 -30 -15 -34 -8 -3 -20 -17 -25 -31 -5 -14 -14 -25 -20
-25 -16 0 -60 -104 -54 -128 7 -23 -15 -69 -46 -97 -21 -18 -20 -15 6 35 41
79 41 79 -7 32 -99 -96 -141 -132 -152 -132 -7 0 -6 -4 3 -11 11 -8 8 -9 -15
-5 -22 5 -26 4 -15 -4 13 -8 13 -10 -2 -10 -35 0 -25 18 34 61 127 92 220 221
277 383 42 118 60 229 68 410 5 126 4 151 -9 160 -10 7 -17 38 -22 90 -5 54
-13 87 -27 105 -21 29 -38 87 -39 131 0 35 17 14 39 -51 12 -34 28 -58 42 -66
13 -7 25 -11 27 -9 5 6 -21 56 -30 56 -5 0 -18 19 -28 43 -34 75 -74 104 -170
122 -47 9 -107 23 -135 31 -122 36 -236 64 -258 63 -6 0 -34 -9 -62 -20z m140
-8 c22 -5 79 -21 127 -35 48 -15 124 -33 170 -42 109 -21 116 -25 123 -82 11
-84 16 -101 39 -135 16 -23 25 -53 28 -96 5 -67 -10 -79 -26 -22 -5 17 -24 44
-43 59 -58 46 -90 77 -95 92 -3 11 -9 10 -28 -8 -22 -20 -105 -52 -136 -52
-16 0 -37 37 -31 54 3 7 1 19 -4 27 -10 17 -10 19 -14 -104 -2 -54 -8 -104
-14 -111 -6 -7 -8 -16 -4 -19 3 -4 -1 -7 -11 -7 -11 0 -14 4 -9 13 13 20 11
29 -21 91 -32 61 -95 140 -96 119 0 -6 -9 -9 -22 -5 -15 4 -19 2 -13 -7 4 -7
16 -11 26 -8 17 5 59 -33 59 -52 0 -12 -46 -7 -61 6 -8 7 -26 9 -39 6 -16 -4
-27 -1 -36 12 -8 11 -14 15 -14 10 0 -4 -10 0 -22 11 -20 18 -21 18 -15 1 4
-10 7 -25 7 -33 0 -7 6 -11 13 -8 7 2 22 -4 32 -16 10 -11 13 -20 7 -20 -6 0
-9 -8 -6 -17 3 -10 -4 -6 -16 10 -20 25 -23 26 -35 11 -8 -12 -18 -15 -31 -10
-19 7 -19 8 0 22 17 12 17 14 4 14 -9 0 -20 -5 -24 -11 -4 -7 -15 -2 -31 15
-13 14 -27 26 -32 26 -4 0 -16 15 -26 33 -14 27 -15 38 -6 55 15 27 32 28 49
2 7 -11 21 -20 33 -20 11 0 18 -4 15 -9 -3 -5 5 -8 19 -8 14 0 22 3 19 8 -3 5
-12 9 -20 9 -8 0 -14 10 -14 24 0 14 -11 33 -26 45 l-25 20 32 33 c17 18 38
43 47 56 34 52 109 72 197 53z m-253 -178 c19 -17 24 -43 9 -43 -5 0 -13 9
-16 21 -4 11 -16 24 -28 29 -20 8 -20 9 -3 9 11 1 28 -6 38 -16z m893 -124
c79 -58 125 -116 125 -158 0 -4 -45 36 -100 89 -55 53 -100 102 -100 109 0 14
7 10 75 -40z m-359 -50 c17 -34 13 -66 -13 -105 -14 -21 -23 -24 -84 -24 l-68
0 5 43 c6 53 31 87 75 103 53 19 67 17 85 -17z m44 -3 c7 -18 9 -18 9 -3 1 21
21 13 21 -8 0 -16 -42 -84 -52 -85 -4 0 -4 22 -1 49 3 31 1 51 -6 55 -17 11
-13 26 5 19 9 -3 20 -15 24 -27z m454 -39 c29 -50 39 -100 28 -147 -7 -33 -8
-32 -20 34 -7 38 -22 86 -33 107 -37 73 -16 78 25 6z m-362 26 c27 -32 40 -64
34 -89 -6 -22 -11 -24 -71 -24 -36 0 -65 3 -65 6 0 3 14 26 30 51 17 24 30 51
30 59 0 19 24 18 42 -3z m-442 -46 c0 -6 -11 0 -25 13 -13 12 -22 27 -18 33 7
11 43 -28 43 -46z m684 14 c60 -35 100 -75 115 -114 18 -48 12 -52 -18 -11
-15 22 -58 63 -95 92 -89 71 -90 83 -2 33z m-667 -33 c-3 -8 -6 -5 -6 6 -1 11
2 17 5 13 3 -3 4 -12 1 -19z m308 -38 c3 -5 -1 -10 -9 -10 -9 0 -16 5 -16 10
0 6 4 10 9 10 6 0 13 -4 16 -10z m190 0 c3 -5 -3 -10 -15 -10 -12 0 -18 5 -15
10 3 6 10 10 15 10 5 0 12 -4 15 -10z m168 -1 c32 -17 96 -80 113 -111 8 -15
14 -37 14 -50 -1 -21 -2 -21 -16 7 -9 17 -46 60 -82 98 -66 66 -71 78 -29 56z
m186 -97 c1 -53 -15 -98 -43 -121 -13 -11 -14 -8 -9 26 3 21 12 55 20 77 7 21
13 55 14 75 1 58 17 7 18 -57z m-329 -29 c0 -133 -30 -383 -46 -383 -2 0 -87
63 -190 139 l-187 139 -185 -139 c-146 -109 -188 -136 -194 -125 -17 31 -38
216 -38 339 l0 127 420 0 420 0 0 -97z m246 -45 c8 -15 14 -49 14 -75 l-1 -48
-13 37 c-8 21 -32 68 -55 106 -22 38 -41 72 -41 77 0 14 80 -67 96 -97z m-44
-43 c39 -63 48 -101 41 -166 -3 -33 -7 -58 -9 -56 -2 1 -7 31 -13 65 -6 37
-27 95 -51 142 -46 91 -53 127 -16 83 12 -15 34 -46 48 -68z m134 -20 c-9 -23
-30 -55 -46 -70 l-30 -29 6 34 c4 19 15 44 24 55 23 26 50 79 52 102 0 10 3 3
5 -16 3 -19 -3 -53 -11 -76z m10 -69 c-8 -26 -12 -54 -10 -61 12 -31 -47 -123
-106 -165 l-29 -21 15 38 c9 21 38 61 65 88 59 61 66 85 8 30 l-42 -40 6 38
c4 24 16 46 35 62 15 13 37 43 48 66 23 53 30 31 10 -35z m-580 -92 c101 -74
184 -137 184 -139 0 -6 -29 -83 -48 -127 l-21 -47 -147 110 c-81 60 -151 109
-157 109 -6 0 -71 -45 -144 -101 -74 -55 -140 -102 -147 -105 -8 -3 -22 16
-39 53 -51 114 -62 94 142 247 100 75 184 136 188 136 3 0 88 -61 189 -136z
m383 -6 c30 -71 38 -166 17 -193 -15 -19 -15 -18 -16 25 0 25 -7 74 -15 110
-8 36 -17 75 -20 88 -10 42 12 22 34 -30z m-56 5 c40 -93 50 -219 22 -273 -9
-17 -17 -30 -18 -30 -1 0 -1 34 1 75 3 45 -2 101 -11 142 -21 92 -26 123 -17
123 4 0 14 -17 23 -37z m218 -96 c-14 -35 -66 -93 -117 -128 -23 -16 -45 -29
-49 -29 -14 0 44 65 87 97 26 19 55 48 65 63 20 35 27 33 14 -3z m-585 -123
l144 -106 -17 -30 c-30 -52 -143 -167 -210 -215 l-64 -45 -57 37 c-66 44 -156
133 -202 200 -32 46 -32 48 -14 65 19 19 266 200 272 200 2 0 69 -48 148 -106z
m300 21 c24 -58 13 -177 -19 -203 -9 -8 -11 16 -9 114 2 68 5 124 8 124 3 0
12 -16 20 -35z m246 -7 c-24 -39 -58 -66 -130 -102 l-53 -27 17 26 c9 14 43
39 76 57 33 18 70 45 81 60 28 38 34 27 9 -14z m-292 -147 c0 -54 -4 -74 -21
-95 -29 -37 -39 -32 -23 12 7 20 13 58 14 84 0 25 3 53 6 62 13 33 24 2 24
-63z m236 50 c-23 -24 -162 -101 -183 -101 -20 0 53 59 85 68 20 7 55 23 77
37 52 32 55 31 21 -4z m-297 -92 c-3 -38 -11 -75 -18 -82 -19 -19 -12 -27 17
-16 38 15 166 48 171 44 9 -9 -69 -46 -119 -55 -30 -6 -63 -14 -72 -16 -14 -4
-16 2 -12 48 6 78 14 121 26 136 6 6 11 12 12 12 1 0 -1 -32 -5 -71z m240 15
c-18 -22 -85 -55 -143 -70 -70 -18 -45 2 57 47 94 42 104 45 86 23z m-374
-164 c-8 -16 -33 -39 -55 -50 -49 -25 -65 -26 -25 -1 17 10 43 33 59 50 37 39
41 39 21 1z m215 25 c0 -15 -67 -35 -116 -35 -32 0 -55 2 -52 5 3 3 36 11 74
19 81 16 94 18 94 11z m-110 -54 c0 -10 -77 -31 -116 -31 -51 0 -8 24 54 31
31 3 58 7 60 8 1 0 2 -3 2 -8z"/>
<path d="M935 1841 c-3 -5 6 -8 20 -7 35 4 44 16 12 16 -14 0 -28 -4 -32 -9z"/>
<path d="M1000 1839 c0 -5 5 -7 10 -4 6 3 10 8 10 11 0 2 -4 4 -10 4 -5 0 -10
-5 -10 -11z"/>
<path d="M1060 1830 c0 -5 7 -10 16 -10 8 0 12 5 9 10 -3 6 -10 10 -16 10 -5
0 -9 -4 -9 -10z"/>
<path d="M1137 1803 c-4 -3 -2 -12 4 -20 9 -10 7 -18 -6 -33 -18 -20 -18 -21
-1 -38 17 -16 18 -16 11 6 -3 12 -2 22 3 22 12 0 22 37 15 56 -6 15 -16 18
-26 7z"/>
<path d="M870 1789 c0 -5 5 -7 10 -4 6 3 10 8 10 11 0 2 -4 4 -10 4 -5 0 -10
-5 -10 -11z"/>
<path d="M825 1760 c-27 -30 -12 -34 15 -5 13 14 19 25 13 25 -5 0 -18 -9 -28
-20z"/>
<path d="M1335 1760 c3 -5 13 -10 21 -10 8 0 12 5 9 10 -3 6 -13 10 -21 10 -8
0 -12 -4 -9 -10z"/>
<path d="M1025 1750 c-3 -5 -1 -10 4 -10 6 0 11 5 11 10 0 6 -2 10 -4 10 -3 0
-8 -4 -11 -10z"/>
<path d="M1402 1748 c8 -7 20 -22 26 -33 6 -11 12 -14 12 -7 0 23 -20 52 -37
52 -15 0 -15 -1 -1 -12z"/>
<path d="M910 1738 c0 -9 5 -20 10 -23 13 -8 13 5 0 25 -8 13 -10 13 -10 -2z"/>
<path d="M815 1699 c-4 -6 0 -9 11 -7 15 2 19 -3 17 -24 -1 -16 2 -28 8 -28 5
0 9 16 9 35 0 28 -4 35 -19 35 -11 0 -23 -5 -26 -11z"/>
<path d="M930 1675 c13 -14 25 -23 28 -21 4 5 -35 46 -45 46 -3 0 4 -11 17
-25z"/>
<path d="M1010 1690 c0 -5 5 -10 10 -10 6 0 10 5 10 10 0 6 -4 10 -10 10 -5 0
-10 -4 -10 -10z"/>
<path d="M1120 1675 c-7 -8 -8 -15 -2 -15 5 0 15 7 22 15 7 8 8 15 2 15 -5 0
-15 -7 -22 -15z"/>
<path d="M821 1664 c0 -11 3 -14 6 -6 3 7 2 16 -1 19 -3 4 -6 -2 -5 -13z"/>
<path d="M880 1659 c0 -5 5 -7 10 -4 6 3 10 8 10 11 0 2 -4 4 -10 4 -5 0 -10
-5 -10 -11z"/>
<path d="M1040 1650 c-13 -8 -12 -10 3 -10 9 0 17 5 17 10 0 12 -1 12 -20 0z"/>
<path d="M1150 1649 c0 -5 5 -7 10 -4 6 3 10 8 10 11 0 2 -4 4 -10 4 -5 0 -10
-5 -10 -11z"/>
<path d="M910 1641 c0 -5 5 -13 10 -16 6 -3 10 -2 10 4 0 5 -4 13 -10 16 -5 3
-10 2 -10 -4z"/>
<path d="M885 1614 c9 -9 19 -13 23 -10 3 4 0 11 -8 16 -24 15 -33 11 -15 -6z"/>
<path d="M1295 1620 c-3 -5 -2 -10 4 -10 5 0 13 5 16 10 3 6 2 10 -4 10 -5 0
-13 -4 -16 -10z"/>
<path d="M1440 1609 c7 -11 14 -19 16 -16 7 7 -7 37 -17 37 -6 0 -5 -9 1 -21z"/>
<path d="M750 1608 c0 -7 5 -20 10 -28 8 -12 10 -11 10 7 0 12 -4 25 -10 28
-5 3 -10 0 -10 -7z"/>
<path d="M1235 1595 c-24 -11 -26 -14 -9 -14 11 -1 29 6 40 14 24 18 8 18 -31
0z"/>
<path d="M790 1590 c0 -5 5 -10 10 -10 6 0 10 5 10 10 0 6 -4 10 -10 10 -5 0
-10 -4 -10 -10z"/>
<path d="M915 1580 c3 -5 14 -10 23 -10 15 0 15 2 2 10 -20 13 -33 13 -25 0z"/>
<path d="M1120 1549 c0 -5 5 -7 10 -4 6 3 10 8 10 11 0 2 -4 4 -10 4 -5 0 -10
-5 -10 -11z"/>
<path d="M1115 1520 c4 -6 11 -8 16 -5 14 9 11 15 -7 15 -8 0 -12 -5 -9 -10z"/>
<path d="M756 1313 c-1 -1 1 -37 5 -81 8 -91 31 -144 84 -191 42 -37 54 -33
108 29 39 45 55 93 64 182 l5 63 -132 0 c-72 0 -133 -1 -134 -2z m245 -73 c-1
-28 -9 -71 -17 -93 -15 -43 -79 -117 -100 -117 -16 0 -73 65 -86 99 -10 26
-28 151 -22 162 2 3 54 4 115 3 l113 -2 -3 -52z"/>
<path d="M818 1264 c-12 -13 -14 -24 -6 -57 5 -23 7 -49 5 -59 -3 -9 7 -28 24
-44 28 -27 29 -27 49 -9 16 15 22 16 35 5 21 -17 41 1 30 27 -4 10 -7 38 -6
63 2 35 -3 50 -19 65 -30 27 -44 7 -41 -59 1 -30 -2 -57 -8 -61 -7 -4 -11 14
-11 53 0 44 -5 63 -18 75 -16 15 -20 15 -34 1z m32 -68 c0 -62 16 -84 45 -62
15 11 17 22 12 70 -4 42 -2 56 6 53 7 -2 13 -29 15 -65 2 -38 7 -62 14 -62 9
0 9 -3 0 -12 -9 -9 -15 -9 -24 0 -9 9 -16 8 -30 -5 -18 -16 -20 -16 -38 3 -13
13 -19 35 -20 74 -2 71 -2 72 10 65 6 -3 10 -30 10 -59z"/>
<path d="M1243 1236 c6 -88 40 -162 91 -201 l35 -27 34 26 c53 41 88 114 94
201 l6 75 -133 0 -133 0 6 -74z m240 8 c-4 -79 -23 -134 -63 -175 -20 -22 -43
-39 -49 -39 -7 0 -28 15 -46 33 -38 38 -65 116 -65 186 l0 46 112 -1 113 -1
-2 -49z"/>
<path d="M1317 1263 c-12 -14 -13 -23 -5 -37 6 -11 8 -45 5 -81 -6 -67 -2 -81
20 -64 7 7 26 9 43 5 23 -4 36 0 50 14 21 21 27 74 10 85 -8 5 -8 11 0 20 9
10 4 21 -18 46 -24 27 -31 30 -49 21 -13 -7 -23 -8 -30 -1 -6 6 -15 3 -26 -8z
m96 -18 c10 -15 13 -26 7 -30 -7 -4 -5 -14 5 -28 20 -29 19 -50 -5 -72 -13
-12 -27 -15 -46 -11 -14 4 -31 3 -37 -3 -9 -7 -12 12 -10 72 2 75 3 82 22 79
10 -2 22 2 26 8 9 15 18 12 38 -15z"/>
<path d="M1361 1236 c-7 -8 -11 -25 -9 -37 l3 -21 25 20 c23 19 24 22 9 37
-14 14 -17 14 -28 1z m29 -15 c0 -6 -4 -13 -10 -16 -5 -3 -10 1 -10 9 0 9 5
16 10 16 6 0 10 -4 10 -9z"/>
<path d="M1367 1178 c-9 -5 -17 -20 -17 -33 0 -20 5 -25 24 -25 28 0 49 22 40
43 -8 21 -27 27 -47 15z m33 -22 c0 -8 -4 -17 -9 -21 -12 -7 -24 12 -16 25 9
15 25 12 25 -4z"/>
<path d="M1108 1080 c-12 -21 -22 -28 -34 -23 -14 5 -16 2 -11 -18 4 -13 7
-34 7 -46 0 -29 42 -57 74 -49 23 6 38 32 51 89 4 21 2 27 -8 25 -7 -2 -24 9
-38 25 l-24 28 -17 -31z m35 -51 c-2 -41 -2 -42 8 -16 6 15 14 27 18 27 10 0
1 -51 -12 -67 -27 -35 -78 -3 -77 49 1 21 2 21 15 -7 8 -16 12 -20 10 -9 -7
26 14 76 29 71 6 -2 10 -24 9 -48z"/>
<path d="M973 981 c-8 -23 -15 -29 -32 -24 -19 5 -20 2 -15 -28 13 -64 45 -96
84 -84 24 8 35 27 44 78 5 29 4 37 -7 37 -8 0 -22 11 -31 25 -21 32 -29 32
-43 -4z m34 -46 c-7 -51 -2 -58 14 -17 6 15 13 22 16 15 9 -24 -21 -68 -47
-68 -26 0 -56 44 -47 68 3 7 10 0 16 -15 13 -34 20 -36 14 -4 -5 27 12 66 29
66 7 0 9 -15 5 -45z"/>
<path d="M1243 980 c-8 -22 -15 -27 -32 -23 -19 5 -20 2 -15 -28 19 -105 99
-118 126 -21 13 43 13 47 -4 50 -10 2 -22 12 -28 22 -16 30 -36 30 -47 0z m33
-51 c-7 -45 0 -51 15 -11 6 15 13 22 16 15 9 -24 -21 -68 -47 -68 -26 0 -56
44 -47 68 3 7 10 0 16 -15 13 -34 20 -36 14 -4 -6 29 14 69 29 60 6 -4 8 -22
4 -45z"/>
<path d="M842 885 c-8 -17 -20 -25 -37 -25 -22 0 -23 -3 -15 -22 5 -13 11 -36
15 -51 10 -50 79 -57 103 -9 17 31 22 82 10 82 -7 0 -24 11 -38 25 l-27 25
-11 -25z m30 -56 l-2 -44 14 30 14 30 1 -27 c1 -15 -6 -34 -15 -42 -30 -31
-62 -15 -74 38 -10 45 -5 46 15 4 8 -18 12 -23 10 -12 -7 26 14 76 29 71 6 -2
10 -23 8 -48z"/>
<path d="M1382 885 c-8 -17 -20 -25 -37 -25 -22 0 -23 -3 -15 -22 5 -13 11
-36 15 -51 10 -48 73 -56 99 -13 20 31 28 86 14 86 -7 0 -24 11 -38 25 l-27
25 -11 -25z m30 -56 l-2 -44 14 30 14 30 1 -27 c1 -28 -22 -58 -44 -58 -22 0
-45 30 -45 58 l1 27 14 -30 c8 -16 12 -20 10 -9 -7 26 14 76 29 71 6 -2 10
-23 8 -48z"/>
<path d="M1252 680 c-30 -19 -33 -24 -30 -63 3 -39 5 -42 33 -42 26 0 30 4 33
29 4 30 -13 49 -35 41 -7 -2 -10 2 -7 10 3 8 14 17 25 20 10 4 19 11 19 16 0
12 0 12 -38 -11z m18 -76 c0 -31 -23 -28 -28 4 -2 15 2 22 12 22 11 0 16 -9
16 -26z"/>
<path d="M960 680 c0 -5 4 -10 8 -10 5 0 6 -22 2 -50 -6 -49 -6 -50 19 -49 14
0 20 3 14 6 -8 3 -13 25 -13 59 0 41 -4 54 -15 54 -8 0 -15 -4 -15 -10z"/>
<path d="M1047 683 c-11 -11 -8 -43 5 -43 6 0 5 -7 -5 -18 -14 -16 -15 -21 -3
-37 20 -27 66 -13 66 20 0 14 -5 25 -11 25 -8 0 -8 5 1 15 17 21 5 45 -23 45
-13 0 -27 -3 -30 -7z m41 -20 c-4 -22 -22 -20 -26 1 -2 10 3 16 13 16 10 0 15
-7 13 -17z m2 -63 c0 -11 -7 -20 -15 -20 -8 0 -15 9 -15 20 0 11 7 20 15 20 8
0 15 -9 15 -20z"/>
<path d="M1153 657 c-28 -41 -29 -57 -3 -57 22 0 27 -15 8 -23 -7 -3 3 -6 22
-6 19 0 30 3 23 7 -6 4 -11 14 -11 22 3 40 -3 90 -9 90 -5 0 -18 -15 -30 -33z
m17 -17 c0 -11 -7 -20 -15 -20 -13 0 -13 3 -3 20 7 11 14 20 15 20 2 0 3 -9 3
-20z"/>
<path d="M1521 1876 c-9 -10 -9 -16 -1 -21 17 -10 37 12 24 25 -8 8 -15 6 -23
-4z"/>
<path d="M1830 1879 c0 -19 -64 -82 -73 -73 -4 4 -7 3 -7 -3 0 -5 9 -18 20
-28 19 -18 20 -17 20 3 0 28 20 39 35 18 10 -14 14 -14 24 -2 9 11 7 15 -11
19 -21 6 -22 8 -6 23 18 18 38 11 38 -14 0 -12 3 -13 12 -4 10 10 5 19 -20 44
-21 22 -32 28 -32 17z"/>
<path d="M673 1852 c-3 -14 -11 -18 -24 -15 -13 4 -19 0 -19 -11 0 -19 8 -20
43 -3 28 12 35 31 16 42 -6 4 -13 -2 -16 -13z"/>
<path d="M1561 1856 c-9 -10 -9 -16 -1 -21 17 -10 37 12 24 25 -8 8 -15 6 -23
-4z"/>
<path d="M356 1831 c-11 -12 -16 -24 -13 -28 4 -3 7 -3 7 1 0 4 18 -6 40 -24
27 -21 37 -36 33 -47 -9 -23 14 -8 28 19 6 11 7 18 2 15 -10 -7 -68 49 -75 71
-2 10 -9 8 -22 -7z"/>
<path d="M1594 1829 c-10 -17 13 -36 27 -22 12 12 4 33 -11 33 -5 0 -12 -5
-16 -11z"/>
<path d="M596 1805 c-3 -9 1 -18 10 -22 19 -7 28 2 21 22 -8 19 -23 19 -31 0z"/>
<path d="M1636 1813 c-12 -12 -6 -33 9 -33 8 0 15 6 15 14 0 17 -14 28 -24 19z"/>
<path d="M302 1769 c-10 -16 -10 -20 0 -17 7 1 24 -4 38 -11 23 -13 24 -15 5
-22 -11 -4 -34 -8 -51 -8 -17 -1 -37 -7 -43 -14 -9 -11 0 -13 52 -10 34 2 73
6 86 9 22 5 21 7 -23 41 -25 19 -43 39 -40 44 3 5 1 9 -3 9 -5 0 -14 -9 -21
-21z"/>
<path d="M560 1776 c0 -18 16 -29 30 -21 13 8 1 35 -16 35 -8 0 -14 -6 -14
-14z"/>
<path d="M1664 1779 c-10 -17 13 -36 27 -22 12 12 4 33 -11 33 -5 0 -12 -5
-16 -11z"/>
<path d="M1905 1768 c-16 -5 -47 -12 -69 -16 l-38 -7 22 -20 c15 -14 21 -15
18 -5 -2 9 5 15 17 15 13 0 20 -7 20 -20 0 -11 -6 -19 -12 -17 -18 3 -17 1 27
-66 25 -37 46 -59 54 -56 10 4 13 -5 12 -32 -2 -73 86 -95 116 -29 23 52 -32
102 -85 78 -26 -12 -67 0 -67 21 0 19 66 57 86 49 14 -5 14 -3 -1 21 -15 22
-20 25 -27 13 -4 -8 -23 -24 -42 -35 -53 -31 -63 -10 -25 56 17 30 29 55 27
57 -2 1 -16 -2 -33 -7z m-1 -23 c-6 -16 -24 -21 -24 -7 0 11 11 22 21 22 5 0
6 -7 3 -15z m155 -184 c13 -23 -3 -46 -41 -60 -54 -20 -72 38 -20 68 26 16 50
13 61 -8z"/>
<path d="M532 1744 c4 -21 22 -23 26 -1 2 10 -3 17 -13 17 -10 0 -15 -6 -13
-16z"/>
<path d="M1701 1746 c-9 -10 -9 -16 -1 -21 17 -10 37 12 24 25 -8 8 -15 6 -23
-4z"/>
<path d="M496 1722 c-2 -4 -1 -14 4 -22 7 -11 12 -12 21 -3 6 6 8 16 5 22 -8
13 -23 14 -30 3z"/>
<path d="M1736 1723 c-12 -12 -6 -33 9 -33 8 0 15 6 15 14 0 17 -14 28 -24 19z"/>
<path d="M471 1686 c-12 -14 -5 -26 16 -26 15 0 18 26 4 34 -5 3 -14 0 -20 -8z"/>
<path d="M1757 1684 c-9 -10 2 -24 19 -24 8 0 14 7 14 15 0 15 -21 21 -33 9z"/>
<path d="M315 1652 c21 -19 34 -25 43 -19 15 11 16 31 2 22 -6 -4 -22 0 -35 9
-38 25 -43 19 -10 -12z"/>
<path d="M216 1644 c-8 -22 -8 -24 7 -19 6 3 27 -4 45 -15 33 -20 43 -54 19
-63 -19 -7 -76 19 -84 39 -5 14 -8 13 -19 -7 -11 -22 -10 -24 25 -37 69 -26
78 -26 96 1 20 32 8 60 -35 82 -17 9 -30 20 -30 25 0 16 -17 11 -24 -6z"/>
<path d="M442 1644 c4 -21 22 -23 26 -1 2 10 -3 17 -13 17 -10 0 -15 -6 -13
-16z"/>
<path d="M1784 1649 c-10 -17 13 -36 27 -22 12 12 4 33 -11 33 -5 0 -12 -5
-16 -11z"/>
<path d="M585 1580 c-45 -33 -86 -55 -96 -53 -34 9 -108 -121 -134 -234 -29
-130 -20 -262 31 -423 44 -139 79 -197 189 -307 74 -74 134 -117 212 -154 56
-27 84 -34 163 -39 122 -8 144 -3 93 20 -46 21 -213 184 -213 208 0 23 -38 84
-48 78 -5 -3 -14 11 -21 30 -7 19 -16 32 -21 29 -4 -3 -11 18 -15 45 -4 28
-13 57 -21 65 -8 7 -14 26 -14 42 0 34 -10 73 -19 73 -3 0 -7 -28 -8 -62 -6
-254 -7 -268 -22 -240 -23 43 -26 159 -6 212 17 44 24 165 10 178 -4 4 -13 -2
-21 -12 -22 -31 -29 -10 -16 52 7 32 12 70 12 85 0 27 -13 36 -25 17 -13 -21
-24 -9 -15 16 13 33 13 84 0 84 -17 0 -11 25 16 74 21 38 23 46 10 46 -12 0
-9 10 15 42 17 25 28 50 25 61 -2 10 2 34 10 54 30 72 16 74 -71 13z m49 -8
c-11 -16 -57 -65 -103 -108 -64 -60 -82 -73 -77 -54 14 47 61 104 126 150 36
26 67 46 69 44 2 -2 -5 -16 -15 -32z m-167 -109 c-15 -28 -28 -77 -32 -117 -9
-79 -25 -71 -25 12 0 55 17 101 53 139 30 34 32 21 4 -34z m156 23 c-4 -7 -35
-36 -69 -63 -33 -28 -72 -65 -87 -83 -33 -38 -35 -22 -5 31 20 36 43 56 128
107 41 26 43 26 33 8z m-84 -149 c-37 -34 -74 -77 -84 -95 -21 -42 -31 -35
-15 12 14 45 43 81 93 117 71 52 75 32 6 -34z m-120 -112 c6 -22 11 -47 11
-55 0 -25 -30 12 -45 56 -11 29 -14 33 -15 16 0 -26 14 -57 39 -87 21 -24 43
-95 30 -95 -16 0 -68 82 -75 118 -6 31 10 155 25 192 3 8 9 -12 13 -45 4 -33
11 -78 17 -100z m112 43 c-17 -29 -44 -78 -59 -108 -23 -47 -27 -52 -30 -30
-6 41 16 95 59 144 54 61 68 58 30 -6z m5 -106 c-28 -59 -49 -121 -53 -153 -5
-39 -8 -48 -14 -34 -15 39 -9 115 12 158 27 52 90 140 96 133 3 -3 -16 -50
-41 -104z m34 -85 c-22 -52 -45 -122 -51 -154 -17 -90 -19 -90 -77 -33 -29 28
-52 46 -52 39 0 -6 24 -34 53 -61 87 -81 117 -112 117 -121 0 -11 -54 21 -102
62 -29 25 -38 29 -30 14 15 -28 68 -72 112 -92 19 -9 40 -23 47 -31 17 -21 15
-1 -2 30 -20 35 -18 104 5 196 21 80 50 131 50 87 0 -12 -9 -59 -20 -105 -22
-91 -25 -146 -11 -195 6 -19 6 -35 1 -38 -13 -8 -109 42 -143 74 -34 31 -60
78 -52 91 3 5 -1 21 -10 34 -9 14 -18 40 -20 58 -2 18 -8 47 -13 64 -9 28 -6
26 46 -25 30 -30 60 -67 66 -82 10 -24 12 -19 12 44 0 91 26 168 72 219 20 22
38 36 40 30 1 -5 -15 -53 -38 -105z m-156 -17 c18 -19 36 -50 40 -68 l6 -33
-29 21 c-42 29 -70 80 -77 136 l-5 49 16 -35 c9 -19 31 -51 49 -70z m156 -140
c-12 -56 -20 -112 -17 -126 6 -34 -2 -30 -17 9 -17 41 -7 123 25 198 32 73 35
43 9 -81z m135 -215 c0 -69 -1 -125 -3 -125 -2 0 -10 16 -18 35 -24 59 -14
215 15 215 3 0 6 -56 6 -125z m-206 -4 c15 -11 52 -30 82 -41 50 -20 104 -58
95 -67 -8 -9 -152 66 -186 95 -39 35 -33 43 9 13z m256 -48 c3 -38 12 -85 19
-105 13 -35 13 -36 -5 -25 -28 17 -49 69 -49 120 0 97 26 104 35 10z m55 -53
c0 -19 4 -50 9 -68 17 -56 10 -61 -70 -46 -74 14 -98 24 -117 47 -9 10 10 8
71 -8 45 -12 91 -26 102 -31 16 -6 18 -5 9 7 -22 27 -36 90 -29 126 8 45 25
27 25 -27z m-157 -20 c88 -36 103 -57 25 -33 -69 20 -98 35 -128 68 l-25 28
25 -16 c14 -8 60 -29 103 -47z m222 -80 c29 -57 31 -67 9 -49 -17 14 -37 51
-49 88 -12 39 13 15 40 -39z m-80 -36 c79 -10 89 -23 19 -24 -48 0 -67 5 -85
21 -22 18 -22 20 -4 15 11 -3 43 -8 70 -12z m220 -82 c-7 -8 -65 30 -84 54
-38 48 -22 47 33 -3 29 -26 52 -49 51 -51z m-75 23 c11 -13 8 -15 -21 -14 -19
0 -52 6 -74 14 l-40 13 61 1 c44 1 65 -3 74 -14z"/>
<path d="M412 1608 c5 -15 28 -18 29 -3 0 6 -7 12 -17 13 -10 3 -15 -1 -12
-10z"/>
<path d="M1810 1606 c0 -8 4 -17 9 -20 11 -7 33 18 24 27 -12 12 -33 7 -33 -7z"/>
<path d="M392 1574 c1 -9 9 -19 16 -22 9 -3 13 2 10 14 -1 9 -9 19 -16 22 -9
3 -13 -2 -10 -14z"/>
<path d="M1835 1569 c-4 -6 2 -13 14 -16 16 -4 19 -9 11 -18 -8 -10 -8 -15 0
-20 21 -13 31 10 18 38 -13 28 -32 35 -43 16z"/>
<path d="M366 1541 c-3 -5 1 -14 8 -20 16 -13 32 2 21 19 -8 12 -22 13 -29 1z"/>
<path d="M344 1499 c-8 -14 18 -31 30 -19 9 9 0 30 -14 30 -5 0 -12 -5 -16
-11z"/>
<path d="M1880 1494 c-11 -13 -10 -16 9 -21 17 -4 19 -8 10 -19 -9 -11 -7 -15
5 -20 26 -10 30 2 12 41 -19 40 -19 40 -36 19z"/>
<path d="M326 1461 c-3 -5 1 -14 8 -20 16 -13 32 2 21 19 -8 12 -22 13 -29 1z"/>
<path d="M188 1453 c-21 -5 -23 -23 -5 -46 17 -23 48 1 40 31 -3 12 -8 21 -12
21 -3 -1 -14 -3 -23 -6z"/>
<path d="M2037 1429 c-8 -31 23 -55 41 -32 14 20 16 43 3 43 -5 0 -16 3 -24 6
-9 3 -16 -3 -20 -17z"/>
<path d="M314 1419 c-10 -17 13 -36 27 -22 12 12 4 33 -11 33 -5 0 -12 -5 -16
-11z"/>
<path d="M1910 1404 c0 -9 7 -14 17 -12 25 5 28 28 4 28 -12 0 -21 -6 -21 -16z"/>
<path d="M300 1365 c0 -10 7 -15 18 -13 21 4 19 22 -2 26 -10 2 -16 -3 -16
-13z"/>
<path d="M1927 1374 c-9 -10 2 -24 19 -24 8 0 14 7 14 15 0 15 -21 21 -33 9z"/>
<path d="M2121 1325 c-28 -41 -37 -43 -68 -13 l-23 21 0 -22 c0 -12 4 -20 9
-17 5 3 20 -3 32 -15 l24 -20 -27 4 c-24 4 -28 1 -28 -21 0 -21 2 -23 16 -11
8 7 37 13 63 13 44 1 47 3 43 24 -3 17 -8 20 -15 13 -6 -6 -17 -11 -24 -11
-10 0 -7 9 8 29 11 16 19 36 17 45 -2 11 -10 6 -27 -19z"/>
<path d="M202 1331 c7 -11 10 -22 7 -25 -9 -9 -99 16 -99 27 0 20 -20 -16 -20
-37 0 -14 3 -16 13 -8 8 7 26 8 51 2 47 -10 52 -16 36 -35 -10 -12 -10 -15 3
-15 10 0 17 15 21 45 9 60 9 60 -9 63 -14 3 -14 1 -3 -17z"/>
<path d="M287 1334 c-9 -10 2 -24 19 -24 8 0 14 7 14 15 0 15 -21 21 -33 9z"/>
<path d="M1936 1332 c-2 -4 -1 -14 4 -22 7 -11 12 -12 21 -3 6 6 8 16 5 22 -8
13 -23 14 -30 3z"/>
<path d="M281 1283 c1 -10 -1 -26 -6 -36 -9 -22 -1 -31 21 -23 13 5 14 10 6
18 -8 8 -8 15 -1 24 12 14 4 34 -12 34 -6 0 -9 -8 -8 -17z"/>
<path d="M1950 1290 c-12 -7 -12 -12 -2 -22 9 -9 15 -9 24 0 16 16 -2 34 -22
22z"/>
<path d="M1955 1239 c-10 -15 1 -23 20 -15 9 3 13 10 10 16 -8 13 -22 13 -30
-1z"/>
<path d="M80 1211 c0 -28 2 -32 15 -21 21 18 45 5 45 -25 0 -20 -5 -25 -24
-25 -13 0 -27 6 -29 13 -4 7 -6 6 -6 -5 -1 -9 -4 -25 -7 -35 -6 -15 -4 -16 7
-5 17 15 91 16 107 0 9 -9 12 -6 12 14 0 22 -4 25 -25 20 -22 -4 -25 -1 -25
23 0 25 3 27 29 22 25 -5 28 -3 24 16 -4 20 -9 22 -55 18 -35 -2 -53 1 -59 10
-6 10 -9 3 -9 -20z"/>
<path d="M2138 1197 c-22 -17 -30 -18 -42 -7 -29 23 -46 5 -45 -47 0 -26 3
-42 6 -35 3 7 24 12 53 12 29 0 50 -5 53 -12 3 -7 6 2 6 20 1 29 -1 31 -19 20
-31 -20 -35 -1 -5 25 36 30 29 52 -7 24z m-30 -44 c2 -8 -6 -13 -22 -13 -17 0
-26 5 -26 16 0 19 41 16 48 -3z"/>
<path d="M267 1204 c-9 -10 2 -24 19 -24 8 0 14 7 14 15 0 15 -21 21 -33 9z"/>
<path d="M1957 1195 c-8 -18 11 -31 25 -17 11 11 3 32 -12 32 -4 0 -10 -7 -13
-15z"/>
<path d="M264 1159 c-10 -17 13 -36 27 -22 12 12 4 33 -11 33 -5 0 -12 -5 -16
-11z"/>
<path d="M1957 1154 c-9 -10 2 -24 19 -24 8 0 14 7 14 15 0 15 -21 21 -33 9z"/>
<path d="M260 1104 c0 -9 7 -14 17 -12 25 5 28 28 4 28 -12 0 -21 -6 -21 -16z"/>
<path d="M1962 1103 c5 -25 28 -28 28 -4 0 12 -6 21 -16 21 -9 0 -14 -7 -12
-17z"/>
<path d="M191 1084 c-1 -15 -94 -23 -104 -10 -4 6 -6 -11 -5 -39 2 -39 7 -51
21 -53 18 -4 18 -3 1 22 -19 30 -18 33 11 38 16 2 19 -2 18 -19 -3 -24 20 -32
32 -13 3 6 1 10 -4 10 -6 0 -11 7 -11 15 0 9 9 15 21 15 17 0 20 -5 17 -25 -4
-17 -1 -25 8 -25 8 0 14 10 13 23 -1 26 -17 78 -18 61z"/>
<path d="M264 1069 c-10 -17 13 -36 27 -22 12 12 4 33 -11 33 -5 0 -12 -5 -16
-11z"/>
<path d="M2056 1064 c-36 -35 -3 -104 49 -104 29 0 65 32 65 58 0 10 -7 28
-16 40 -18 26 -74 30 -98 6z m88 -20 c20 -19 20 -28 2 -43 -20 -17 -77 -10
-89 11 -25 38 52 67 87 32z"/>
<path d="M1960 1055 c0 -8 7 -15 15 -15 8 0 15 7 15 15 0 8 -7 15 -15 15 -8 0
-15 -7 -15 -15z"/>
<path d="M270 1015 c0 -10 7 -15 18 -13 21 4 19 22 -2 26 -10 2 -16 -3 -16
-13z"/>
<path d="M1950 1016 c0 -10 9 -16 21 -16 24 0 21 23 -4 28 -10 2 -17 -3 -17
-12z"/>
<path d="M276 982 c-3 -6 1 -15 9 -22 11 -9 12 -16 5 -25 -8 -10 -8 -15 0 -20
16 -10 34 10 24 27 -5 7 -9 19 -9 27 0 17 -21 26 -29 13z"/>
<path d="M1950 980 c-12 -7 -12 -12 -2 -22 9 -9 15 -9 24 0 16 16 -2 34 -22
22z"/>
<path d="M2030 949 c0 -11 3 -18 8 -15 4 2 16 -2 26 -10 17 -12 17 -14 3 -20
-10 -3 -24 -4 -32 0 -8 3 -15 1 -15 -3 0 -5 -3 -16 -6 -25 -5 -14 -3 -14 30
-1 47 20 73 19 85 -2 9 -16 10 -16 11 -1 0 9 3 25 7 35 6 15 4 16 -8 6 -12
-10 -22 -8 -47 7 -18 11 -35 27 -38 35 -9 22 -24 18 -24 -6z"/>
<path d="M1932 928 c7 -19 38 -22 38 -4 0 10 -9 16 -21 16 -12 0 -19 -5 -17
-12z"/>
<path d="M163 885 c-9 -19 -21 -35 -25 -35 -15 0 -21 30 -8 45 13 16 10 18
-13 9 -17 -6 -11 -48 9 -65 20 -16 43 -4 55 31 14 39 44 42 34 3 -6 -26 -5
-27 10 -12 14 13 15 21 6 38 -18 33 -49 26 -68 -14z"/>
<path d="M297 894 c-9 -10 2 -24 19 -24 8 0 14 7 14 15 0 15 -21 21 -33 9z"/>
<path d="M1927 894 c-13 -13 -7 -24 14 -24 11 0 19 5 17 12 -5 14 -22 21 -31
12z"/>
<path d="M310 845 c0 -10 7 -15 18 -13 21 4 19 22 -2 26 -10 2 -16 -3 -16 -13z"/>
<path d="M1915 850 c-7 -12 2 -30 16 -30 5 0 9 9 9 20 0 21 -15 27 -25 10z"/>
<path d="M220 840 c-13 -8 -12 -10 3 -10 9 0 17 -6 17 -13 0 -15 -77 -50 -91
-41 -11 6 -10 -4 1 -31 5 -11 9 -15 9 -9 1 11 70 44 92 44 6 0 9 -9 6 -20 -5
-20 7 -28 17 -12 5 9 -26 102 -34 102 -3 0 -12 -5 -20 -10z"/>
<path d="M326 811 c-7 -11 18 -33 27 -24 4 3 7 12 7 20 0 15 -26 18 -34 4z"/>
<path d="M1894 809 c-10 -17 13 -36 27 -22 12 12 4 33 -11 33 -5 0 -12 -5 -16
-11z"/>
<path d="M1990 800 c-13 -25 -13 -30 3 -24 8 3 25 -5 38 -16 l24 -21 -42 3
c-24 2 -43 1 -43 -1 0 -3 12 -18 27 -33 l27 -28 -32 0 c-17 0 -34 5 -38 11 -5
8 -10 6 -16 -5 -6 -10 -8 -19 -6 -20 10 -9 128 -14 128 -7 0 5 -15 22 -32 36
l-33 27 48 -6 c26 -3 47 -3 47 1 0 3 -20 28 -45 54 -41 44 -46 46 -55 29z"/>
<path d="M344 769 c-10 -17 13 -36 27 -22 12 12 4 33 -11 33 -5 0 -12 -5 -16
-11z"/>
<path d="M1877 765 c-8 -18 11 -31 25 -17 11 11 3 32 -12 32 -4 0 -10 -7 -13
-15z"/>
<path d="M367 734 c-13 -13 -7 -24 14 -24 11 0 19 5 17 12 -5 14 -22 21 -31
12z"/>
<path d="M1854 729 c-10 -17 13 -36 27 -22 12 12 4 33 -11 33 -5 0 -12 -5 -16
-11z"/>
<path d="M172 686 c8 -14 12 -16 18 -6 10 16 40 6 40 -14 0 -8 -7 -19 -15 -24
-10 -5 -13 -15 -9 -25 7 -18 24 -23 24 -7 0 5 16 27 35 49 19 21 35 41 35 44
0 3 -31 5 -69 4 -64 -2 -68 -3 -59 -21z m83 -5 c-3 -6 -11 -8 -17 -5 -6 4 -5
9 3 15 16 10 23 4 14 -10z"/>
<path d="M386 691 c-3 -5 1 -14 9 -21 8 -7 15 -19 15 -27 0 -17 31 -14 38 5 2
7 -5 12 -16 12 -15 0 -19 5 -15 20 4 14 0 20 -10 20 -9 0 -18 -4 -21 -9z"/>
<path d="M1834 689 c-10 -17 13 -36 27 -22 12 12 4 33 -11 33 -5 0 -12 -5 -16
-11z"/>
<path d="M300 650 c0 -5 7 -10 15 -10 8 0 15 -4 15 -9 0 -13 -72 -56 -88 -53
-9 2 -8 -5 5 -24 12 -19 19 -23 21 -13 3 15 64 59 83 59 6 0 9 -9 6 -19 -3
-14 -1 -18 9 -14 8 3 14 -1 14 -10 0 -19 -67 -70 -81 -61 -18 11 6 -28 33 -53
17 -16 28 -19 38 -13 13 8 13 10 -1 10 -9 0 -22 7 -29 16 -11 12 -10 18 4 32
14 15 18 15 26 2 5 -8 6 -19 2 -25 -3 -5 2 -4 11 4 16 12 16 15 1 25 -14 11
-14 13 0 25 20 16 39 4 33 -21 -4 -16 -3 -17 9 -7 12 10 11 15 -6 38 -12 14
-37 50 -57 79 -32 47 -63 68 -63 42z"/>
<path d="M1810 646 c0 -8 4 -17 9 -20 11 -7 33 18 24 27 -12 12 -33 7 -33 -7z"/>
<path d="M1892 615 c-18 -28 -19 -35 -7 -35 24 0 85 -43 85 -60 0 -8 12 4 26
28 24 40 25 62 2 62 -7 0 -7 -4 0 -13 7 -8 7 -17 -2 -29 -11 -16 -15 -16 -32
-3 -18 14 -18 16 -1 29 16 12 16 14 1 20 -22 8 -26 8 -19 -3 7 -13 -10 -22
-28 -15 -19 7 -11 34 10 34 8 0 11 5 8 10 -10 17 -19 11 -43 -25z"/>
<path d="M444 616 c-4 -9 -4 -20 0 -23 3 -4 12 -1 18 5 9 9 9 15 0 24 -9 9
-13 7 -18 -6z"/>
<path d="M1784 619 c-10 -17 13 -36 27 -22 12 12 4 33 -11 33 -5 0 -12 -5 -16
-11z"/>
<path d="M471 586 c-9 -10 -9 -16 -1 -21 17 -10 37 12 24 25 -8 8 -15 6 -23
-4z"/>
<path d="M1756 581 c-3 -5 1 -14 8 -20 16 -13 32 2 21 19 -8 12 -22 13 -29 1z"/>
<path d="M1850 556 c-13 -13 -13 -29 0 -21 6 3 22 -3 36 -14 l27 -21 -55 0
c-37 0 -60 -5 -68 -15 -10 -12 -9 -15 6 -15 21 -1 74 -43 74 -60 0 -16 14 -12
27 10 10 16 10 18 -1 14 -7 -3 -26 7 -42 21 l-29 26 63 -6 c34 -4 62 -5 62 -2
0 2 -20 24 -45 49 -30 31 -48 41 -55 34z"/>
<path d="M496 551 c-7 -11 18 -33 27 -24 4 3 7 12 7 20 0 15 -26 18 -34 4z"/>
<path d="M1724 549 c-10 -17 13 -36 27 -22 12 12 4 33 -11 33 -5 0 -12 -5 -16
-11z"/>
<path d="M524 519 c-8 -14 18 -31 30 -19 9 9 0 30 -14 30 -5 0 -12 -5 -16 -11z"/>
<path d="M1694 519 c-10 -17 13 -36 27 -22 12 12 4 33 -11 33 -5 0 -12 -5 -16
-11z"/>
<path d="M560 486 c0 -8 4 -17 9 -20 11 -7 33 18 24 27 -12 12 -33 7 -33 -7z"/>
<path d="M1665 490 c-7 -12 2 -30 16 -30 5 0 9 9 9 20 0 21 -15 27 -25 10z"/>
<path d="M595 460 c-11 -17 5 -32 21 -19 8 6 14 15 14 20 0 12 -27 11 -35 -1z"/>
<path d="M1626 461 c-3 -5 1 -14 8 -20 16 -13 32 2 21 19 -8 12 -22 13 -29 1z"/>
<path d="M485 440 c4 -6 -5 -24 -19 -41 -32 -38 -33 -64 -2 -84 28 -19 47 -12
85 29 18 19 28 23 37 15 10 -8 8 -17 -8 -45 -11 -19 -27 -38 -36 -43 -13 -7
-12 -10 8 -21 14 -8 20 -8 16 -1 -4 6 1 25 11 41 15 26 19 28 25 13 3 -10 7
-35 7 -55 1 -47 13 -48 41 -3 12 20 28 41 35 49 11 10 9 15 -7 25 -16 10 -19
10 -15 -1 2 -7 -3 -26 -11 -43 l-16 -30 -10 54 c-9 42 -18 59 -43 79 -31 23
-33 23 -33 5 0 -45 -80 -83 -88 -42 -4 22 47 81 61 72 7 -3 3 3 -7 15 -19 22
-43 31 -31 12z"/>
<path d="M636 443 c-11 -11 -6 -33 8 -33 7 0 19 -7 26 -15 14 -17 30 -11 30
12 0 10 -6 14 -20 10 -13 -3 -20 0 -20 8 0 16 -15 27 -24 18z"/>
<path d="M1597 443 c-4 -3 -7 -12 -7 -20 0 -15 26 -18 34 -4 7 11 -18 33 -27
24z"/>
<path d="M1698 405 c-31 -27 -34 -35 -14 -35 14 0 47 -42 56 -72 5 -15 7 -15
29 3 16 13 18 19 8 19 -8 0 -20 7 -28 16 -10 13 -10 17 1 24 8 5 18 6 23 3 5
-3 3 5 -3 18 l-13 23 -9 -24 c-8 -22 -10 -22 -25 -8 -17 18 -10 38 13 38 8 0
12 5 9 10 -9 15 -17 12 -47 -15z"/>
<path d="M1554 409 c-10 -17 13 -36 27 -22 12 12 4 33 -11 33 -5 0 -12 -5 -16
-11z"/>
<path d="M704 389 c-10 -17 13 -36 27 -22 12 12 4 33 -11 33 -5 0 -12 -5 -16
-11z"/>
<path d="M1514 389 c-10 -17 13 -36 27 -22 12 12 4 33 -11 33 -5 0 -12 -5 -16
-11z"/>
<path d="M744 369 c-10 -17 13 -36 27 -22 12 12 4 33 -11 33 -5 0 -12 -5 -16
-11z"/>
<path d="M1474 369 c-10 -17 13 -36 27 -22 12 12 4 33 -11 33 -5 0 -12 -5 -16
-11z"/>
<path d="M784 349 c-8 -14 11 -33 25 -25 6 4 11 14 11 22 0 16 -26 19 -36 3z"/>
<path d="M1436 352 c-2 -4 -1 -14 4 -22 7 -11 12 -12 21 -3 6 6 8 16 5 22 -8
13 -23 14 -30 3z"/>
<path d="M1395 340 c-8 -13 3 -30 21 -30 18 0 18 14 0 29 -10 8 -16 9 -21 1z"/>
<path d="M1595 330 c-36 -40 -7 -110 46 -110 27 0 59 35 59 65 0 55 -69 85
-105 45z m80 -45 c8 -22 6 -29 -10 -41 -18 -14 -22 -12 -47 16 -32 35 -34 43
-12 65 14 14 19 14 38 2 11 -8 25 -27 31 -42z"/>
<path d="M825 331 c-3 -5 -1 -12 5 -16 12 -7 30 2 30 16 0 12 -27 12 -35 0z"/>
<path d="M715 291 c7 -13 -21 -83 -39 -96 -11 -9 -9 -13 11 -22 18 -9 23 -9
20 0 -5 13 30 88 45 98 5 3 -3 11 -17 17 -15 7 -24 8 -20 3z"/>
<path d="M1044 289 c-10 -17 13 -36 27 -22 12 12 4 33 -11 33 -5 0 -12 -5 -16
-11z"/>
<path d="M1096 293 c-12 -12 -6 -33 9 -33 8 0 15 6 15 14 0 17 -14 28 -24 19z"/>
<path d="M1134 289 c-8 -14 11 -33 25 -25 11 7 4 36 -9 36 -5 0 -12 -5 -16
-11z"/>
<path d="M1180 280 c0 -13 5 -20 13 -17 6 2 12 10 12 17 0 7 -6 15 -12 18 -8
2 -13 -5 -13 -18z"/>
<path d="M1222 284 c4 -21 22 -23 26 -1 2 10 -3 17 -13 17 -10 0 -15 -6 -13
-16z"/>
<path d="M1474 274 c-6 -2 -8 -18 -6 -34 2 -17 0 -30 -6 -30 -14 0 -35 28 -28
39 3 5 -3 7 -14 4 -31 -8 -31 -17 0 -38 36 -24 53 -58 37 -74 -15 -15 2 -13
32 3 19 11 21 14 7 19 -19 7 -22 67 -6 98 10 19 6 22 -16 13z"/>
<path d="M774 254 c3 -9 6 -41 6 -72 l0 -56 48 47 c55 55 86 62 76 20 -12 -54
-17 -68 -27 -75 -6 -3 8 -11 32 -18 40 -10 61 -8 61 9 0 4 -14 5 -31 3 -29 -4
-31 -3 -24 19 10 32 12 34 28 21 10 -8 16 -4 26 19 16 37 11 42 -59 58 -40 8
-56 9 -58 1 -2 -6 -15 -23 -28 -38 l-23 -27 -1 43 c0 27 5 42 13 43 6 0 3 4
-8 9 -30 13 -38 12 -31 -6z m191 -64 c0 -8 -10 -16 -22 -18 -25 -4 -26 -2 -17
23 8 19 39 16 39 -5z"/>
<path d="M1323 227 c-33 -8 -43 -16 -43 -31 0 -20 0 -20 14 0 21 27 36 8 39
-49 1 -35 6 -46 15 -42 8 3 21 5 30 5 14 0 14 1 -1 12 -9 7 -19 32 -23 56 -5
35 -4 42 10 42 9 0 16 -5 16 -12 0 -6 2 -9 5 -6 7 7 -5 38 -14 37 -3 -1 -25
-7 -48 -12z"/>
<path d="M1005 153 c0 -52 7 -72 26 -73 4 0 5 21 3 46 -4 58 6 83 26 59 11
-13 11 -19 -3 -32 -15 -15 -15 -19 1 -45 9 -15 23 -28 30 -28 12 0 11 5 -3 26
-12 19 -14 29 -6 37 29 29 0 67 -51 67 -21 0 -23 -4 -23 -57z"/>
<path d="M1142 198 c-19 -19 -14 -46 13 -64 26 -17 34 -44 13 -44 -6 0 -20 7
-30 17 -19 17 -24 8 -9 -15 5 -8 21 -12 37 -10 23 2 30 9 32 30 3 22 -2 30
-22 40 -25 11 -33 28 -19 41 3 4 15 0 25 -10 10 -9 18 -12 18 -7 0 13 -21 34
-35 34 -6 0 -16 -5 -23 -12z"/>
<path d="M1219 201 c8 -5 14 -29 15 -63 1 -51 2 -54 24 -50 16 3 20 8 13 16
-6 6 -11 33 -13 59 -3 43 -5 47 -28 47 -18 0 -21 -3 -11 -9z"/>
</g>
</svg>
