<?xml version="1.0" standalone="no"?>
<!DOCTYPE svg PUBLIC "-//W3C//DTD SVG 20010904//EN"
 "http://www.w3.org/TR/2001/REC-SVG-20010904/DTD/svg10.dtd">
<svg version="1.0" xmlns="http://www.w3.org/2000/svg"
 width="225.000000pt" height="225.000000pt" viewBox="0 0 225.000000 225.000000"
 preserveAspectRatio="xMidYMid meet">
<metadata>
Created by potrace 1.10, written by Peter Selinger 2001-2011
</metadata>
<g transform="translate(0.000000,225.000000) scale(0.100000,-0.100000)"
fill="#000000" stroke="none">
<path d="M949 2105 c-387 -73 -684 -352 -791 -743 -31 -111 -31 -363 0 -474
101 -369 361 -629 730 -730 111 -31 363 -31 474 0 189 52 353 147 477 277 125
132 204 273 253 453 31 111 31 363 0 474 -101 369 -366 633 -730 729 -102 27
-308 34 -413 14z m353 -39 c369 -71 649 -337 755 -716 25 -91 26 -357 0 -448
-90 -329 -313 -574 -617 -680 -217 -76 -473 -68 -685 20 -295 124 -518 404
-574 722 -15 84 -14 251 3 338 74 382 373 684 756 763 87 18 271 18 362 1z"/>
<path d="M830 1964 c0 -8 5 -24 10 -35 9 -15 15 -17 30 -9 25 14 26 36 1 50
-28 14 -41 13 -41 -6z"/>
<path d="M986 1956 c-25 -21 -27 -27 -17 -40 7 -8 20 -12 28 -9 13 5 15 2 11
-15 -9 -32 4 -27 30 12 43 63 6 100 -52 52z m54 -4 c0 -15 -11 -21 -27 -15
-12 5 -12 7 -1 14 17 11 28 11 28 1z"/>
<path d="M1533 1898 c-6 -7 -21 -37 -33 -66 l-23 -54 -66 4 c-36 2 -72 6 -80
8 -20 7 -23 -12 -5 -35 12 -16 25 -20 66 -18 40 2 49 0 39 -10 -6 -7 -31 -17
-54 -24 l-42 -11 57 -1 c50 -1 62 3 91 28 19 17 47 31 67 33 44 4 53 28 11 28
-36 0 -38 8 -11 43 23 29 25 46 7 71 -11 15 -15 15 -24 4z"/>
<path d="M1030 1870 c-14 -11 -31 -20 -38 -20 -18 0 -11 -21 12 -34 14 -9 22
-6 42 17 23 27 32 57 17 57 -5 0 -19 -9 -33 -20z"/>
<path d="M826 1871 c-4 -5 -2 -21 4 -36 8 -22 13 -24 30 -15 24 13 26 45 4 54
-22 8 -32 8 -38 -3z"/>
<path d="M897 1812 c-8 -20 -33 -62 -56 -92 -23 -30 -41 -58 -41 -62 0 -8 34
-28 48 -28 9 0 42 81 60 150 6 19 13 43 17 53 4 9 3 17 -3 17 -5 0 -17 -17
-25 -38z"/>
<path d="M1070 1669 c-130 -12 -235 -62 -331 -158 -172 -172 -210 -421 -99
-642 31 -60 127 -172 140 -164 5 3 -14 29 -41 57 -68 71 -126 191 -140 289
-50 344 258 651 602 600 286 -43 492 -319 450 -602 -15 -97 -73 -218 -140
-287 -27 -28 -46 -54 -41 -57 13 -8 109 104 139 164 45 89 61 155 61 256 0
155 -50 277 -159 386 -122 122 -266 173 -441 158z"/>
<path d="M1498 1640 c-4 -25 -1 -31 18 -36 28 -7 44 2 44 25 0 46 -55 56 -62
11z"/>
<path d="M450 1640 c0 -10 -9 -24 -20 -30 -25 -13 -25 -32 -2 -54 11 -9 19
-30 20 -46 1 -34 -13 -40 -23 -11 -4 13 -12 18 -23 15 -9 -3 -23 -8 -31 -10
-11 -4 -9 -10 9 -29 14 -15 21 -31 17 -45 -6 -24 8 -27 21 -4 11 20 18 10 27
-40 7 -36 6 -38 -14 -31 l-22 7 19 -39 c11 -21 25 -55 31 -75 13 -38 45 -58
63 -40 7 7 -3 28 -31 65 -34 47 -38 57 -26 67 8 7 15 22 15 34 1 21 1 21 21
-3 25 -31 39 -18 16 17 -20 33 -42 79 -51 110 -10 30 8 28 41 -4 33 -33 53
-18 33 23 -8 16 -16 32 -18 37 -3 5 16 -5 41 -23 55 -38 66 -39 59 -6 -3 16
-21 37 -48 56 -24 16 -44 36 -44 44 0 18 -5 18 -32 4 -15 -8 -18 -17 -13 -36
4 -16 2 -22 -5 -18 -5 3 -10 24 -10 46 0 21 -4 39 -10 39 -5 0 -10 -9 -10 -20z
m19 -77 c9 -6 13 -15 9 -18 -10 -11 -38 21 -37 42 0 14 2 15 6 3 4 -8 13 -20
22 -27z m91 0 c0 -2 -9 1 -19 7 -25 13 -35 -2 -26 -37 6 -24 5 -24 -11 -9 -14
14 -14 21 -4 46 12 28 13 29 36 13 13 -8 24 -17 24 -20z m-91 -152 c0 -14 -1
-14 -6 -1 -3 8 -10 24 -15 35 -9 20 -9 20 6 1 9 -11 16 -27 15 -35z"/>
<path d="M1801 1497 c-26 -53 -26 -57 -1 -57 24 0 40 28 40 69 0 43 -15 39
-39 -12z"/>
<path d="M1737 1493 c-4 -3 -7 -15 -7 -25 0 -28 34 -19 38 10 3 21 -16 31 -31
15z"/>
<path d="M1887 1481 c-3 -14 -10 -19 -21 -15 -11 4 -16 1 -16 -10 0 -9 -7 -16
-15 -16 -8 0 -15 -4 -15 -10 0 -5 10 -10 22 -10 15 0 19 -3 11 -11 -10 -10
-88 3 -125 23 -10 5 -18 6 -18 3 0 -14 38 -44 63 -49 15 -3 38 -8 52 -11 14
-3 25 -10 25 -15 0 -6 -9 -6 -26 0 -14 6 -38 10 -53 10 -15 0 -50 11 -76 25
-27 13 -51 22 -54 19 -3 -2 -1 -16 5 -31 6 -18 19 -29 42 -35 17 -5 32 -12 32
-17 0 -15 -31 -21 -51 -11 -25 14 -24 6 3 -30 26 -36 47 -38 77 -6 13 14 30
22 41 19 20 -5 41 18 22 25 -15 5 -16 22 -1 22 6 0 27 -8 46 -17 35 -16 36
-16 52 4 9 11 34 26 54 32 29 10 37 18 37 37 0 13 -5 24 -12 24 -6 0 -3 9 7
20 23 25 14 34 -33 35 -20 1 -44 4 -53 9 -12 5 -18 1 -22 -13z m33 -26 c0 -8
-2 -15 -4 -15 -2 0 -6 7 -10 15 -3 8 -1 15 4 15 6 0 10 -7 10 -15z m43 -15 c3
-11 1 -20 -4 -20 -5 0 -9 6 -9 14 0 8 -6 17 -12 19 -8 4 -7 6 3 6 9 1 19 -8
22 -19z m-69 -5 c-7 -16 -24 -21 -24 -6 0 8 7 13 27 20 1 1 0 -6 -3 -14z m41
-24 c0 -8 -6 -16 -14 -19 -8 -3 -11 0 -7 7 4 6 2 11 -3 11 -6 0 -11 5 -11 11
0 6 8 9 18 7 9 -2 17 -10 17 -17z m-41 -17 c4 -9 2 -22 -4 -29 -5 -6 -9 -14
-7 -16 1 -2 -6 5 -15 16 -12 14 -14 23 -6 32 14 17 25 16 32 -3z m-137 -50
c-3 -3 -12 -4 -19 -1 -8 3 -5 6 6 6 11 1 17 -2 13 -5z m-7 -29 c-7 -8 -17 -15
-22 -15 -6 0 -5 7 2 15 7 8 17 15 22 15 6 0 5 -7 -2 -15z"/>
<path d="M264 1438 c-3 -4 10 -17 28 -28 l33 -20 7 21 c5 12 5 25 2 30 -6 11
-63 8 -70 -3z"/>
<path d="M331 1381 c-14 -9 -11 -12 37 -38 20 -11 22 -10 22 18 0 23 -4 29
-22 29 -13 0 -29 -4 -37 -9z"/>
<path d="M1087 1378 c-10 -7 -25 -42 -35 -77 l-18 -63 -18 40 c-30 66 -59 87
-119 87 -181 0 -236 -5 -230 -20 9 -25 58 -45 111 -45 43 0 50 -3 61 -26 l11
-26 -65 4 c-36 1 -65 0 -65 -4 0 -3 14 -18 31 -32 24 -20 41 -26 80 -26 42 0
51 -3 58 -22 8 -22 5 -23 -41 -28 l-50 -5 21 -27 c15 -19 35 -29 67 -34 28 -4
48 -13 54 -25 9 -16 5 -18 -32 -21 l-43 -3 27 -27 c15 -16 38 -28 52 -28 15 0
30 -8 36 -19 15 -30 13 -34 -20 -27 l-30 6 16 -26 c10 -14 30 -28 45 -31 42
-8 55 -28 42 -63 -9 -25 -5 -36 42 -110 l52 -82 52 83 c37 58 49 85 42 92 -6
6 -11 24 -11 39 0 22 5 29 28 33 37 8 53 18 69 41 12 19 11 20 -19 16 -26 -4
-30 -2 -25 12 4 10 7 22 7 27 0 5 16 9 35 9 22 0 43 8 55 20 29 29 25 40 -15
40 -35 0 -40 5 -29 34 4 11 19 16 44 16 36 0 90 30 90 51 0 5 -22 9 -50 9 -49
0 -50 0 -38 25 10 22 17 25 63 25 41 0 56 5 72 23 43 47 41 50 -29 45 l-65 -4
8 26 c8 23 14 25 57 22 53 -3 87 12 110 46 l15 24 -146 -4 -146 -3 -30 -29
c-17 -17 -36 -45 -43 -63 -7 -18 -15 -33 -18 -33 -3 0 -12 17 -20 38 -8 20
-16 40 -18 44 -2 4 16 13 39 20 l43 12 -40 18 c-46 21 -103 23 -127 6z m87
-14 c13 -5 13 -9 -5 -23 l-21 -17 23 -50 c13 -27 31 -49 39 -49 7 0 25 21 39
47 14 26 27 45 30 43 2 -3 9 2 16 11 11 16 32 17 182 13 60 -2 43 -19 -18 -19
-43 0 -51 -3 -61 -26 -15 -33 -1 -58 36 -62 41 -5 20 -22 -28 -22 -39 0 -45
-3 -56 -30 -17 -41 -7 -60 32 -61 32 0 32 -1 9 -10 -14 -5 -31 -7 -38 -4 -16
5 -63 -37 -63 -56 0 -7 7 -20 16 -30 15 -17 14 -18 -9 -25 -15 -3 -30 -11 -36
-17 -12 -15 -22 -79 -11 -72 5 3 11 1 15 -5 3 -5 -2 -10 -12 -10 -10 0 -29 -7
-42 -16 -20 -14 -22 -23 -18 -58 5 -33 0 -50 -25 -94 -28 -49 -31 -52 -44 -35
-13 17 -14 17 -8 -2 4 -11 -9 3 -29 30 -30 43 -34 56 -31 94 5 48 -14 81 -48
81 -10 0 -18 5 -18 11 0 5 4 8 9 5 12 -8 -5 64 -19 78 -11 11 -14 12 -52 15
-22 2 -22 3 -3 10 11 5 23 7 26 5 10 -6 21 29 11 35 -5 3 -11 13 -14 22 -4 9
-23 19 -42 23 -34 7 -51 26 -22 26 7 0 19 7 26 15 9 11 8 20 -6 45 -16 26 -24
30 -61 30 -50 0 -67 17 -21 22 31 3 33 6 31 37 -2 42 -15 51 -75 51 -26 0 -49
4 -53 10 -3 5 7 9 22 8 15 0 66 0 112 2 72 2 87 -1 98 -16 7 -10 13 -14 13 -9
0 6 9 -8 21 -30 12 -22 25 -44 30 -49 13 -15 38 13 45 51 4 19 12 37 20 40 7
2 10 11 8 18 -8 19 47 32 80 19z"/>
<path d="M1830 951 c0 -5 16 -23 35 -40 l36 -31 -51 0 c-27 0 -50 -4 -50 -10
0 -6 28 -10 64 -10 36 0 77 -5 91 -10 39 -15 53 0 16 16 -17 7 -53 31 -79 54
-49 41 -62 47 -62 31z"/>
<path d="M400 945 c0 -3 7 -20 16 -36 8 -17 14 -32 12 -34 -2 -1 -43 4 -92 12
-49 7 -91 12 -93 9 -3 -3 3 -28 12 -56 10 -31 21 -48 26 -43 6 6 3 24 -6 46
l-15 37 42 -6 c24 -4 63 -10 88 -15 25 -4 48 -4 53 0 10 10 -16 84 -31 89 -7
2 -12 1 -12 -3z"/>
<path d="M1770 809 c-20 -39 -19 -73 1 -37 9 16 18 13 85 -27 42 -25 80 -42
86 -39 5 3 -26 26 -69 51 -95 56 -88 50 -74 67 8 9 8 16 2 20 -6 4 -20 -12
-31 -35z"/>
<path d="M371 786 c-52 -26 -80 -46 -72 -50 6 -4 28 2 48 14 19 11 36 20 37
18 0 -2 7 -13 14 -25 16 -30 18 -27 -28 -48 -35 -16 -54 -36 -32 -34 23 1 173
87 164 93 -7 4 -22 0 -34 -8 -31 -22 -43 -20 -56 8 -9 21 -7 25 24 39 19 9 34
21 34 27 0 15 -8 12 -99 -34z"/>
<path d="M445 684 c-38 -24 -74 -45 -79 -47 -14 -5 46 -87 63 -87 9 0 4 12
-14 36 -29 38 -29 38 17 64 13 8 21 4 38 -20 12 -17 26 -28 31 -24 5 3 0 17
-11 31 -25 32 -25 35 2 52 20 12 24 11 48 -19 15 -18 30 -29 33 -24 3 6 -9 26
-26 46 l-32 36 -70 -44z"/>
<path d="M1720 723 c0 -9 147 -103 160 -103 24 0 4 19 -68 63 -79 47 -92 53
-92 40z"/>
<path d="M1352 647 c-24 -13 -40 -26 -37 -29 4 -4 22 3 41 14 l34 20 0 -62 c0
-38 4 -59 10 -55 11 7 14 135 3 135 -5 -1 -27 -11 -51 -23z"/>
<path d="M1670 655 c-7 -9 -10 -27 -7 -44 6 -28 5 -29 -26 -25 -22 3 -40 -1
-56 -14 l-24 -19 53 -77 c30 -42 57 -76 60 -76 19 0 17 16 -6 45 -33 43 -15
54 31 20 19 -15 39 -24 45 -20 7 4 -3 18 -26 34 -28 22 -37 35 -39 62 -2 32 1
35 29 37 108 8 101 9 101 -18 0 -20 -6 -26 -27 -28 -37 -4 -36 -22 0 -22 35 0
52 16 52 52 0 18 -8 33 -25 44 -23 15 -28 15 -66 0 -45 -18 -63 -12 -57 20 2
11 13 20 26 22 12 2 22 8 22 13 0 15 -46 10 -60 -6z m-26 -101 c12 -12 13 -20
6 -35 -14 -26 -24 -24 -45 7 -14 22 -15 28 -4 35 19 12 25 11 43 -7z"/>
<path d="M853 647 c17 -14 17 -16 0 -46 -12 -21 -24 -30 -35 -27 -28 7 -21 -9
10 -25 45 -22 48 -23 34 -6 -12 13 -9 23 13 61 21 36 24 46 12 46 -9 0 -24 3
-34 6 -17 5 -17 5 0 -9z"/>
<path d="M998 599 c-20 -11 -24 -39 -7 -39 6 0 1 -9 -12 -19 -24 -19 -24 -19
-4 -41 14 -15 28 -20 53 -18 41 3 66 33 42 48 -13 8 -12 11 5 24 18 13 18 16
5 30 -21 20 -61 28 -82 15z m62 -24 c0 -21 -27 -30 -45 -15 -23 19 -18 30 15
30 20 0 30 -5 30 -15z m-12 -47 c13 -13 -1 -38 -22 -38 -21 0 -49 26 -42 38 9
15 49 15 64 0z"/>
<path d="M1182 600 c-51 -21 -34 -70 24 -70 19 0 34 -5 34 -10 0 -15 -47 -31
-67 -23 -11 4 -14 3 -9 -5 11 -18 51 -14 74 6 59 49 15 130 -56 102z m56 -37
c3 -20 -1 -23 -26 -23 -31 0 -43 14 -34 38 8 23 57 10 60 -15z"/>
<path d="M570 554 c-57 -58 -77 -69 -96 -53 -8 7 -13 18 -10 26 3 7 -1 13 -9
13 -19 0 -19 -20 1 -48 25 -36 53 -27 116 35 32 32 58 61 58 65 0 17 -18 6
-60 -38z"/>
<path d="M596 499 c-35 -42 -55 -74 -49 -80 5 -5 33 21 70 65 55 65 65 86 43
86 -3 0 -32 -32 -64 -71z"/>
<path d="M1498 520 l-37 -20 46 -77 c25 -43 47 -80 50 -83 7 -7 92 43 87 52
-3 4 -22 -1 -43 -12 l-38 -19 -14 27 c-7 15 -15 30 -17 33 -1 4 11 12 28 19
16 7 30 16 30 21 0 12 -6 11 -40 -6 -26 -14 -29 -13 -44 10 -21 31 -21 30 14
45 17 7 30 16 30 21 0 13 -10 11 -52 -11z"/>
<path d="M653 459 c-39 -38 -66 -72 -61 -75 5 -3 19 3 31 14 17 16 26 18 39
11 17 -9 17 -12 1 -35 -13 -21 -14 -27 -3 -34 10 -6 22 12 47 73 19 45 37 87
39 93 3 6 -1 14 -8 17 -8 3 -44 -24 -85 -64z m51 -3 c-14 -28 -20 -33 -31 -24
-11 9 -9 16 13 39 34 36 40 32 18 -15z"/>
<path d="M743 405 c-30 -59 -39 -86 -31 -91 7 -4 13 -3 15 2 2 5 14 32 27 59
26 53 30 43 17 -37 -6 -36 -4 -48 6 -52 9 -4 28 24 58 84 29 58 40 90 32 90
-7 0 -25 -24 -40 -52 l-28 -53 6 68 c8 93 -10 88 -62 -18z"/>
<path d="M1430 476 c0 -7 5 -37 10 -66 6 -29 8 -55 6 -57 -2 -2 -18 21 -37 52
-18 30 -40 55 -47 55 -12 0 -12 -3 0 -22 8 -13 32 -51 53 -85 21 -35 44 -63
51 -63 17 0 17 1 4 76 -6 32 -13 74 -16 92 -5 31 -24 46 -24 18z"/>
<path d="M891 424 c-27 -19 -51 -71 -51 -112 0 -32 32 -68 50 -57 7 4 16 1 21
-6 6 -11 9 -11 13 1 2 8 9 29 14 47 9 28 8 33 -9 38 -22 7 -42 -5 -21 -12 17
-6 15 -28 -3 -43 -19 -16 -45 3 -45 31 0 31 31 97 48 104 18 6 45 -21 36 -36
-3 -5 2 -9 10 -9 22 0 20 33 -2 53 -23 21 -32 21 -61 1z"/>
<path d="M1315 419 c4 -12 15 -50 26 -86 19 -68 25 -80 35 -71 10 11 -40 178
-54 178 -9 0 -11 -7 -7 -21z"/>
<path d="M1275 383 l6 -48 -27 43 c-14 23 -33 42 -41 42 -13 0 -15 -10 -9 -61
3 -34 6 -77 6 -95 0 -23 5 -34 14 -34 11 0 14 9 10 35 -2 19 -6 51 -8 70 -6
48 4 39 39 -34 16 -34 33 -61 38 -61 9 0 5 55 -9 153 -9 55 -26 46 -19 -10z"/>
<path d="M1080 337 c0 -91 8 -107 52 -107 37 0 48 24 48 109 0 101 -19 100
-22 -1 -3 -81 -4 -83 -28 -83 -24 0 -25 2 -28 83 -4 107 -22 107 -22 -1z"/>
</g>
</svg>
